{"title":"Classic Albums - The Beach Boys, Pet Sounds","uid":15402669,"size":666558016,"categoryP":"video","categoryS":"tv_shows","magnet":"?xt=urn:btih:d47e9155a713e781c51e3cd93f3e1410fe5f52c1&amp;dn=Classic+Albums+-+The+Beach+Boys%2C+Pet+Sounds&amp;tr=udp%3A%2F%2Ftracker.leechers-paradise.org%3A6969&amp;tr=udp%3A%2F%2Fzer0day.ch%3A1337&amp;tr=udp%3A%2F%2Fopen.demonii.com%3A1337&amp;tr=udp%3A%2F%2Ftracker.coppersurfer.tk%3A6969&amp;tr=udp%3A%2F%2Fexodus.desync.com%3A6969","seeders":7,"leechers":3,"uploader":"RoaElson","files":2,"time":1469474825,"description":"Classic Albums - The Beach Boys: Pet Sounds\r\n\r\nThis edition of the series celebrates the 50th anniversary of the release of Brian Wilson's masterpiece, the Beach Boys' album Pet Sounds. Wilson and the surviving members of the Beach Boys - Mike Love, Al Jardine, Bruce Johnston and David Marks - guide us through the writing and recording of the landmark album that is consistently voted one of the top three most influential albums of all time.\r\nFeaturing exclusive interviews, classic archive and rare studio outtakes from the recording sessions, the film tells the story of the creation of the record that cemented the Beach Boys' reputation as a leading force to rival the Beatles, and Brian Wilson as a songwriting genius.\r\n\r\n\r\nDuration: 60 minutes\r\n\r\nMedia info:-\r\n\r\nGeneral\r\nFormat : MPEG-4\r\nFormat profile : Base Media\r\nCodec ID : isom (isom/iso2/avc1/mp41)\r\nFile size : 635 MiB\r\nDuration : 59mn 3s\r\nOverall bit rate mode : Constant\r\nOverall bit rate : 1 503 Kbps\r\n\r\nVideo\r\nID : 1\r\nFormat : AVC\r\nFormat/Info : Advanced Video Codec\r\nFormat profile :   \r\nFormat settings, CABAC : Yes\r\nFormat settings, ReFrames : 2 frames\r\nCodec ID : avc1\r\nCodec ID/Info : Advanced Video Coding\r\nDuration : 59mn 3s\r\nBit rate mode : Constant\r\nBit rate : 1 404 Kbps\r\nWidth : 832 pixels\r\nHeight : 468 pixels\r\nDisplay aspect ratio : 16:9\r\nFrame rate mode : Constant\r\nFrame rate : 25.000 fps\r\nColor space : YUV\r\nChroma subsampling : 4:2:0\r\nBit depth : 8 bits\r\nScan type : Progressive\r\nBits/(Pixel*Frame) : 0.144\r\nStream size : 593 MiB (93%)\r\n\r\nAudio\r\nID : 2\r\nFormat : AAC\r\nFormat/Info : Advanced Audio Codec\r\nFormat profile : LC\r\nCodec ID : 40\r\nDuration : 59mn 3s\r\nBit rate mode : Constant\r\nBit rate : 93.5 Kbps\r\nChannel(s) : 2 channels\r\nChannel positions : Front: L R\r\nSampling rate : 48.0 KHz\r\nFrame rate : 46.875 fps (1024 spf)\r\nCompression mode : Lossy\r\nStream size : 39.5 MiB (6%)","torrent":{"xt":"urn:btih:d47e9155a713e781c51e3cd93f3e1410fe5f52c1","amp;dn":"Classic+Albums+-+The+Beach+Boys%2C+Pet+Sounds","amp;tr":["udp%3A%2F%2Ftracker.leechers-paradise.org%3A6969","udp%3A%2F%2Fzer0day.ch%3A1337","udp%3A%2F%2Fopen.demonii.com%3A1337","udp%3A%2F%2Ftracker.coppersurfer.tk%3A6969","udp%3A%2F%2Fexodus.desync.com%3A6969"],"infoHash":"d47e9155a713e781c51e3cd93f3e1410fe5f52c1","infoHashBuffer":{"type":"Buffer","data":[212,126,145,85,167,19,231,129,197,30,60,217,63,62,20,16,254,95,82,193]},"announce":[],"urlList":[]}}